<mxfile host="Electron" agent="Mozilla/5.0 (Macintosh; Intel Mac OS X 10_15_7) AppleWebKit/537.36 (KHTML, like Gecko) draw.io/26.2.15 Chrome/134.0.6998.205 Electron/35.2.1 Safari/537.36" version="26.2.15">
  <diagram name="第 1 页" id="tiBuIOtTXg_o1RD3XVGB">
    <mxGraphModel dx="967" dy="748" grid="1" gridSize="10" guides="1" tooltips="1" connect="1" arrows="1" fold="1" page="1" pageScale="1" pageWidth="112" pageHeight="112" math="0" shadow="0">
      <root>
        <mxCell id="0" />
        <mxCell id="1" parent="0" />
        <mxCell id="0Q9boeaI1hT-jUVqQn0w-2" value="" style="rounded=1;whiteSpace=wrap;html=1;glass=0;strokeColor=none;gradientColor=none;arcSize=24;shadow=1;" parent="1" vertex="1">
          <mxGeometry x="6" y="5" width="100" height="100" as="geometry" />
        </mxCell>
        <mxCell id="0Q9boeaI1hT-jUVqQn0w-1" value="" style="shape=image;verticalLabelPosition=bottom;labelBackgroundColor=default;verticalAlign=top;aspect=fixed;imageAspect=0;editableCssRules=.*;image=data:image/svg+xml,PHN2ZyB4bWxuczp4bGluaz0iaHR0cDovL3d3dy53My5vcmcvMTk5OS94bGluayIgeG1sbnM9Imh0dHA6Ly93d3cudzMub3JnLzIwMDAvc3ZnIiB2aWV3Qm94PSIwIDAgMTI0LjYwOTAwMTE1OTY2Nzk3IDEyNi40NDQ5OTk2OTQ4MjQyMiIgdmVyc2lvbj0iMS4xIiB3aWR0aD0iMTI0LjYwOTAwMTE1OTY2Nzk3IiBoZWlnaHQ9IjEyNi40NDQ5OTk2OTQ4MjQyMiI+JiN4YTsgPGc+JiN4YTsgIDxyZWN0IHk9IjAiIHg9IjAiIHdpZHRoPSIxMjQuNjA5IiBvcGFjaXR5PSIwIiBoZWlnaHQ9IjEyNi40NDUiLz4mI3hhOyAgPHBhdGggZmlsbC1vcGFjaXR5PSIwLjUiIGZpbGw9IiMwMDdhZmYiIGQ9Ik0zNi45OTIyIDE0LjQ5MjJMMzYuOTkyMiAxOC4zNTk0QzM2Ljk5MjIgMTkuMDIzNCAzNy4wMzEyIDE5LjcyNjYgMzcuMTQ4NCAyMC4zMTI1TDM1LjE1NjIgMjAuMzEyNUMyOS45NjA5IDIwLjMxMjUgMjcuMzA0NyAyMy40NzY2IDI3LjMwNDcgMjguNzEwOUwyNy4zMDQ3IDEwNS43MDNDMjcuMzA0NyAxMTEuMTMzIDMwLjE5NTMgMTE0LjEwMiAzNS43ODEyIDExNC4xMDJMODguODI4MSAxMTQuMTAyQzk0LjQxNDEgMTE0LjEwMiA5Ny4zMDQ3IDExMS4xMzMgOTcuMzA0NyAxMDUuNzAzTDk3LjMwNDcgNjcuMTg5MUwxMDQuMjE5IDYwLjI4NThMMTA0LjIxOSAxMDUuODJDMTA0LjIxOSAxMTUuOTM4IDk5LjE3OTcgMTIxLjAxNiA4OS4xNzk3IDEyMS4wMTZMMzUuNDI5NyAxMjEuMDE2QzI1LjQyOTcgMTIxLjAxNiAyMC4zNTE2IDExNS45MzggMjAuMzUxNiAxMDUuODJMMjAuMzUxNiAyOC41OTM4QzIwLjM1MTYgMTguNjcxOSAyNS4yNzM0IDEzLjM1OTQgMzUgMTMuMzU5NEwzNy4wMzEyIDEzLjM1OTRDMzYuOTkyMiAxMy43MTA5IDM2Ljk5MjIgMTQuMTQwNiAzNi45OTIyIDE0LjQ5MjJaTTEwNC4yMTkgMjguNTkzOEwxMDQuMjE5IDI5Ljc2MTFMOTcuMzA0NyAzNi42NTlMOTcuMzA0NyAyOC43MTA5Qzk3LjMwNDcgMjMuNDc2NiA5NC42NDg0IDIwLjMxMjUgODkuNDUzMSAyMC4zMTI1TDg3LjQyMTkgMjAuMzEyNUM4Ny41MzkxIDE5LjcyNjYgODcuNTc4MSAxOS4wMjM0IDg3LjU3ODEgMTguMzU5NEw4Ny41NzgxIDE0LjQ5MjJDODcuNTc4MSAxNC4xNDA2IDg3LjU3ODEgMTMuNzEwOSA4Ny41MzkxIDEzLjM1OTRMODkuNjA5NCAxMy4zNTk0Qzk5LjMzNTkgMTMuMzU5NCAxMDQuMjE5IDE4LjY3MTkgMTA0LjIxOSAyOC41OTM4Wk03Mi42OTUzIDkuOTIxODhMNzcuNzM0NCA5LjkyMTg4QzgwLjUwNzggOS45MjE4OCA4Mi4xNDg0IDExLjYwMTYgODIuMTQ4NCAxNC40NTMxTDgyLjE0ODQgMTkuNjg3NUM4Mi4xNDg0IDIyLjUzOTEgODAuNTA3OCAyNC4yMTg4IDc3LjczNDQgMjQuMjE4OEw0Ni44MzU5IDI0LjIxODhDNDQuMTAxNiAyNC4yMTg4IDQyLjQ2MDkgMjIuNTM5MSA0Mi40NjA5IDE5LjY4NzVMNDIuNDYwOSAxNC40NTMxQzQyLjQ2MDkgMTEuNjAxNiA0NC4xMDE2IDkuOTIxODggNDYuODM1OSA5LjkyMTg4TDUxLjkxNDEgOS45MjE4OEM1Mi4xODc1IDQuNDUzMTIgNTYuNzE4OCAwIDYyLjMwNDcgMEM2Ny44OTA2IDAgNzIuNDIxOSA0LjQ1MzEyIDcyLjY5NTMgOS45MjE4OFpNNTcuODUxNiAxMC4yMzQ0QzU3Ljg1MTYgMTIuNjE3MiA1OS44MDQ3IDE0LjY4NzUgNjIuMzA0NyAxNC42ODc1QzY0Ljc2NTYgMTQuNjg3NSA2Ni43NTc4IDEyLjYxNzIgNjYuNzU3OCAxMC4yMzQ0QzY2Ljc1NzggNy43MzQzOCA2NC43NjU2IDUuNzQyMTkgNjIuMzA0NyA1Ljc0MjE5QzU5LjgwNDcgNS43NDIxOSA1Ny44NTE2IDcuNzM0MzggNTcuODUxNiAxMC4yMzQ0WiIvPiYjeGE7ICA8cGF0aCBmaWxsPSIjMDA3YWZmIiBkPSJNNTAuMTE3MiA4Ni43OTY5QzUwLjExNzIgODguMjgxMiA0OC44NjcyIDg5LjUzMTIgNDcuMzgyOCA4OS41MzEyTDM5LjY0ODQgODkuNTMxMkMzOC4xNjQxIDg5LjUzMTIgMzYuOTE0MSA4OC4yODEyIDM2LjkxNDEgODYuNzk2OUMzNi45MTQxIDg1LjI3MzQgMzguMTI1IDg0LjA2MjUgMzkuNjQ4NCA4NC4wNjI1TDQ3LjM4MjggODQuMDYyNUM0OC45MDYyIDg0LjA2MjUgNTAuMTE3MiA4NS4yNzM0IDUwLjExNzIgODYuNzk2OVpNNjMuNDU1MSA3MC40Mjk3TDM5LjY0ODQgNzAuNDI5N0MzOC4xMjUgNzAuNDI5NyAzNi45MTQxIDY5LjIxODggMzYuOTE0MSA2Ny42OTUzQzM2LjkxNDEgNjYuMjEwOSAzOC4xMjUgNjUgMzkuNjQ4NCA2NUw2OC44OTc1IDY1Wk04Ni41MTU4IDQ3LjQyMjdMODEuNTQ0MiA1Mi4zODI4TDM5LjY0ODQgNTIuMzgyOEMzOC4xNjQxIDUyLjM4MjggMzYuOTE0MSA1MS4xMzI4IDM2LjkxNDEgNDkuNjQ4NEMzNi45MTQxIDQ4LjE2NDEgMzguMTY0MSA0Ni45MTQxIDM5LjY0ODQgNDYuOTE0MUw4NC45MjE5IDQ2LjkxNDFDODUuNTE0MSA0Ni45MTQxIDg2LjA2NDkgNDcuMTAyOSA4Ni41MTU4IDQ3LjQyMjdaIi8+JiN4YTsgIDxwYXRoIGZpbGw9IiMwMDdhZmYiIGQ9Ik0xMTMuMzU5IDQyLjQyMTlMMTE2Ljk5MiAzOC43MTA5QzExOC43ODkgMzYuOTE0MSAxMTguNzg5IDM0LjY0ODQgMTE3LjA3IDMyLjkyOTdMMTE2LjA5NCAzMS45NTMxQzExNC41MzEgMzAuMzkwNiAxMTIuMTg4IDMwLjU4NTkgMTEwLjUwOCAzMi4yMjY2TDEwNi44MzYgMzUuODIwM1pNNTcuNjU2MiA5Mi43MzQ0TDY3LjUgODguMTY0MUwxMDkuODA1IDQ1Ljk3NjZMMTAzLjI4MSAzOS40OTIyTDYxLjAxNTYgODEuNjc5N0w1Ni4yMTA5IDkxLjI1QzU1LjgyMDMgOTIuMTA5NCA1Ni43OTY5IDkzLjE2NDEgNTcuNjU2MiA5Mi43MzQ0WiIvPiYjeGE7IDwvZz4mI3hhOzwvc3ZnPg==;" parent="1" vertex="1">
          <mxGeometry x="21.28" y="20" width="69.44" height="70" as="geometry" />
        </mxCell>
      </root>
    </mxGraphModel>
  </diagram>
</mxfile>
